<?xml version="1.0" encoding="utf-8"?>
<!-- Generator: Adobe Illustrator 21.0.0, SVG Export Plug-In . SVG Version: 6.00 Build 0)  -->
<svg version="1.1" id="Layer_1" xmlns="http://www.w3.org/2000/svg" xmlns:xlink="http://www.w3.org/1999/xlink" x="0px" y="0px"
	 viewBox="0 0 82 102" style="enable-background:new 0 0 82 102;" xml:space="preserve">
<style type="text/css">
	.st0{clip-path:url(#SVGID_2_);fill:#F79D20;}
	.st1{clip-path:url(#SVGID_4_);fill:#F26F24;}
</style>
<g>
	<g>
		<defs>
			<path id="SVGID_1_" d="M7.7,48.5c1.6-1.6,4.3-1.6,5.9,0l6.5,6.3V26.3c0-3.5,2.9-6.3,6.5-6.3h28.7c3.6,0,6.5,2.9,6.5,6.3v10
				l5.5,5.4c1.6,1.6,4.3,1.6,5.9,0l7.7-7.6l0-1.2c0-0.3,0-0.6,0-1c-1.2-21.6-22.8-31-40-31C23.1,1,1,10.9,1,33.9V55L7.7,48.5z"/>
		</defs>
		<clipPath id="SVGID_2_">
			<use xlink:href="#SVGID_1_"  style="overflow:visible;"/>
		</clipPath>
		<rect x="-19.6" y="-19" class="st0" width="121" height="94"/>
	</g>
	<g>
		<defs>
			<path id="SVGID_3_" d="M73.2,52c-1.6,1.6-4.3,1.6-5.9,0l-5.5-5.4v28c0,3.5-2.9,6.3-6.5,6.3H26.6c-3.6,0-6.5-2.9-6.5-6.3V65
				l-6.5-6.3c-1.6-1.6-4.3-1.6-5.9,0L1,65.2v3c0,23,22.1,32.8,39.8,32.8S81,91.1,81,68.2V44.4L73.2,52z M41,75.4
				c-1.5,0-2.7-1.2-2.7-2.7c0-1.5,1.2-2.7,2.7-2.7s2.7,1.2,2.7,2.7C43.7,74.2,42.5,75.4,41,75.4z"/>
		</defs>
		<clipPath id="SVGID_4_">
			<use xlink:href="#SVGID_3_"  style="overflow:visible;"/>
		</clipPath>
		<rect x="-19.6" y="24.3" class="st1" width="121.1" height="96.7"/>
	</g>
</g>
</svg>
