<?xml version="1.0" encoding="utf-8"?>
<!-- Generator: Adobe Illustrator 21.0.0, SVG Export Plug-In . SVG Version: 6.00 Build 0)  -->
<svg version="1.1" id="Layer_1" xmlns="http://www.w3.org/2000/svg" xmlns:xlink="http://www.w3.org/1999/xlink" x="0px" y="0px"
	 viewBox="0 0 312 24" style="enable-background:new 0 0 312 24;" xml:space="preserve">
<style type="text/css">
	.st0{filter:url(#Adobe_OpacityMaskFilter);}
	.st1{fill:#FFFFFF;}
	.st2{mask:url(#b);fill:#FFFFFF;}
	.st3{filter:url(#Adobe_OpacityMaskFilter_1_);}
	.st4{mask:url(#d);fill:#FFFFFF;}
	.st5{fill:#F79D20;}
	.st6{fill:#F26F24;}
	.st7{filter:url(#Adobe_OpacityMaskFilter_2_);}
	.st8{mask:url(#f);fill:#FFFFFF;}
	.st9{filter:url(#Adobe_OpacityMaskFilter_3_);}
	.st10{mask:url(#h);fill:#FFFFFF;}
</style>
<g>
	<defs>
		<filter id="Adobe_OpacityMaskFilter" filterUnits="userSpaceOnUse" x="0" y="0.5" width="18.2" height="22.9">
			<feColorMatrix  type="matrix" values="1 0 0 0 0  0 1 0 0 0  0 0 1 0 0  0 0 0 1 0"/>
		</filter>
	</defs>
	<mask maskUnits="userSpaceOnUse" x="0" y="0.5" width="18.2" height="22.9" id="b">
		<g class="st0">
			<path id="a" class="st1" d="M0,23.5V0.5h18.2v22.9H0z"/>
		</g>
	</mask>
	<path class="st2" d="M18.2,1.5v2.9c0,0.6-0.2,1-1,1h-5.3v17c0,0.8-0.4,1-1,1H7.4c-0.6,0-1-0.2-1-1v-17H1c-0.8,0-1-0.4-1-1V1.5
		c0-0.6,0.2-1,1-1h16.2C18,0.5,18.2,0.9,18.2,1.5"/>
	<path class="st1" d="M38.2,23.5h-4.1c-0.8,0-1.3-0.3-1.7-1l-3.8-5.6c-0.3-0.4-0.4-0.8-0.4-1.8v-2.8c0-0.6,0.2-1,1-1h0.7
		c1.7,0,3.3-1.2,3.3-2.8c0-1.8-1.4-3-3.2-3h-4.6v17c0,0.8-0.4,1-1,1h-3.5c-0.6,0-1-0.2-1-1V1.6c0-0.6,0.2-1,1-1h8.8
		c3.8,0,5.5,0.8,6.9,2.2c1.3,1.3,2,3.2,2,5.5c0,3.7-2.7,6.2-4.8,6.9l4.9,7.1C39,22.8,38.9,23.5,38.2,23.5"/>
	<g transform="translate(40.571)">
		<defs>
			<filter id="Adobe_OpacityMaskFilter_1_" filterUnits="userSpaceOnUse" x="0.2" y="0" width="18.7" height="24">
				<feColorMatrix  type="matrix" values="1 0 0 0 0  0 1 0 0 0  0 0 1 0 0  0 0 0 1 0"/>
			</filter>
		</defs>
		<mask maskUnits="userSpaceOnUse" x="0.2" y="0" width="18.7" height="24" id="d">
			<g class="st3">
				<path id="c" class="st1" d="M18.9,0H0.2v24h18.7V0z"/>
			</g>
		</mask>
		<path class="st4" d="M13.4,8.4c0-2.2-1.6-3.5-3.9-3.5c-2.3,0-3.9,1.3-3.9,3.5v7.2c0,2.2,1.6,3.5,3.9,3.5c2.3,0,3.9-1.3,3.9-3.5
			V8.4z M18.9,16.1c0,5.5-5.2,7.9-9.4,7.9c-4.1,0-9.3-2.4-9.3-7.9V7.9C0.2,2.4,5.3,0,9.5,0s9.4,2.4,9.4,7.9V16.1z"/>
	</g>
	<path class="st1" d="M70.8,24c-4.1,0-9.3-2.4-9.3-7.9V7.9c0-5.5,5.2-7.9,9.3-7.9c4.3,0,8.6,2.2,9.1,6.6c0,0.8-0.3,1-1.1,1h-3.3
		c-0.7,0-0.8-0.7-1-1.1c-0.7-1.2-1.7-1.7-3.6-1.7c-2.3,0-3.9,1.3-3.9,3.5v7.2c0,2.2,1.6,3.5,3.9,3.5c1.9,0,3.4-0.7,3.7-2.4
		c0.1-0.7,0.2-1.3,0.9-1.3h3.4c0.8,0,1,0.3,1,1.2C79.8,21.2,75.1,24,70.8,24 M94,14.8l-2.6-7.7l-2.6,7.7H94L94,14.8z M101.6,23.5
		h-3.7c-0.8,0-1-0.2-1.3-1l-1-2.8h-8.5l-1,2.8c-0.3,0.8-0.6,1-1.3,1h-3.7c-0.8,0-0.8-0.6-0.6-1l7.7-20.9c0.3-0.7,0.7-1.1,1.4-1.1H93
		c0.8,0,1.1,0.3,1.4,1.1l7.7,20.9C102.3,22.9,102.3,23.5,101.6,23.5L101.6,23.5z M120.5,1.5v2.9c0,0.6-0.2,1-1,1H109v4.1h9.1
		c0.8,0,1,0.4,1,1v2.8c0,0.6-0.2,1-1,1H109v8.2c0,0.9-0.2,1-1,1h-3.5c-0.8,0-1-0.4-1-1V1.5c0-0.6,0.2-1,1-1h15
		C120.3,0.5,120.5,0.9,120.5,1.5 M162.1,1.5v20.9c0,0.6-0.2,1-1,1H158c-0.9,0-1.1-0.5-1.6-1.2l-7.4-12v12.1c0,0.8-0.4,1-1,1h-3.4
		c-0.6,0-1-0.2-1-1V1.5c0-0.6,0.2-1,1-1h3.3c0.9,0,1.1,0.5,1.6,1.2l7.4,11.9V1.5c0-0.8,0.4-1,1-1h3.3C161.8,0.5,162.1,0.7,162.1,1.5
		 M183.2,19.6v2.9c0,0.6-0.2,1-1,1h-15.6c-0.8,0-1-0.4-1-1V1.5c0-0.6,0.2-1,1-1h15c0.8,0,1,0.4,1,1v2.9c0,0.6-0.2,1-1,1h-10.5v3.8
		h9.3c0.8,0,1,0.4,1,1V13c0,0.6-0.2,1-1,1h-9.3v4.6h11.1C183,18.6,183.2,19,183.2,19.6"/>
	<path class="st5" d="M123.7,11.4c0.4-0.4,1-0.4,1.4,0l1.5,1.5V6.1c0-0.8,0.7-1.5,1.5-1.5h6.7c0.8,0,1.5,0.7,1.5,1.5v2.4l1.3,1.3
		c0.4,0.4,1,0.4,1.4,0c0,0,0,0,0,0l1.8-1.8l0-0.3c0-0.1,0-0.2,0-0.2c-0.3-5.2-5.3-7.4-9.4-7.4c-4.1,0-9.3,2.4-9.3,7.9V13L123.7,11.4
		L123.7,11.4z"/>
	<path class="st6" d="M131.5,17.9c-0.4,0-0.6-0.3-0.6-0.6s0.3-0.6,0.6-0.6c0.4,0,0.6,0.3,0.6,0.6S131.8,17.8,131.5,17.9L131.5,17.9z
		 M139,12.2c-0.4,0.4-1,0.4-1.4,0c0,0,0,0,0,0l-1.3-1.3v6.7c0,0.8-0.7,1.5-1.5,1.5h-6.7c-0.8,0-1.5-0.7-1.5-1.5v-2.3l-1.5-1.5
		c-0.4-0.4-1-0.4-1.4,0l-1.6,1.6v0.7c0,5.5,5.2,7.9,9.3,7.9s9.4-2.4,9.4-7.9v-5.7L139,12.2L139,12.2z"/>
	<path class="st1" d="M203.2,21.1c0.9,0,1.7-0.1,2.6-0.4v2.7c-0.4,0.2-0.9,0.3-1.5,0.4c-0.6,0.1-1.3,0.2-1.9,0.2
		c-3.4,0-5.1-1.8-5.1-5.4V9.6h-2.3V8l2.5-1.3l1.2-3.6h2.2v3.7h4.8v2.7h-4.8v9c0,0.9,0.2,1.5,0.6,1.9
		C201.9,20.9,202.5,21.1,203.2,21.1 M217.7,6.5c0.7,0,1.3,0.1,1.8,0.2l-0.4,3.3c-0.5-0.1-1.1-0.2-1.6-0.2c-1.4,0-2.6,0.5-3.5,1.4
		c-0.9,0.9-1.3,2.1-1.3,3.6v8.8h-3.6V6.9h2.8l0.5,3h0.2c0.6-1,1.3-1.8,2.2-2.4C215.7,6.8,216.7,6.5,217.7,6.5 M227.8,21.3
		c1.3,0,2.3-0.4,3.1-1.1c0.8-0.7,1.2-1.7,1.2-3.1v-1.5l-2.2,0.1c-1.7,0.1-2.9,0.3-3.7,0.8c-0.8,0.5-1.1,1.3-1.1,2.3
		c0,0.8,0.2,1.3,0.7,1.7C226.2,21.1,226.9,21.3,227.8,21.3z M233.1,23.7l-0.7-2.3h-0.1c-0.8,1-1.6,1.7-2.5,2.1
		c-0.8,0.4-1.9,0.6-3.2,0.6c-1.7,0-2.9-0.4-3.9-1.3c-0.9-0.9-1.4-2.2-1.4-3.8c0-1.7,0.6-3,1.9-3.9c1.3-0.9,3.3-1.4,5.9-1.4l2.9-0.1
		v-0.9c0-1.1-0.3-1.9-0.8-2.4c-0.5-0.5-1.3-0.8-2.3-0.8c-0.9,0-1.7,0.1-2.5,0.4c-0.8,0.3-1.6,0.6-2.3,0.9L223.1,8
		c0.9-0.5,2-0.9,3-1.1c1.1-0.2,2.1-0.4,3.1-0.4c2.1,0,3.8,0.5,4.9,1.4c1.1,0.9,1.6,2.4,1.6,4.4v11.3
		C235.7,23.7,233.1,23.7,233.1,23.7z"/>
	<g transform="translate(239.429)">
		<defs>
			<filter id="Adobe_OpacityMaskFilter_2_" filterUnits="userSpaceOnUse" x="0.3" y="0" width="15.3" height="24">
				<feColorMatrix  type="matrix" values="1 0 0 0 0  0 1 0 0 0  0 0 1 0 0  0 0 0 1 0"/>
			</filter>
		</defs>
		<mask maskUnits="userSpaceOnUse" x="0.3" y="0" width="15.3" height="24" id="f">
			<g class="st7">
				<path id="e" class="st1" d="M0.3,0h15.3v24H0.3V0z"/>
			</g>
		</mask>
		<path class="st8" d="M7.9,21.1c1.5,0,2.5-0.4,3.2-1.2c0.7-0.8,1-2.2,1-4v-0.5c0-2.1-0.3-3.6-1-4.5c-0.7-0.9-1.8-1.3-3.2-1.3
			C6.6,9.5,5.6,10,5,11s-1,2.5-1,4.4c0,1.9,0.3,3.3,1,4.3C5.6,20.6,6.6,21.1,7.9,21.1 M6.9,24c-2.1,0-3.7-0.8-4.9-2.3
			c-1.2-1.5-1.8-3.7-1.8-6.4c0-2.8,0.6-4.9,1.8-6.4c1.2-1.5,2.8-2.3,5-2.3c2.2,0,3.9,0.8,5.1,2.5h0.2C12.1,7.8,12,6.8,12,6.1V0h3.6
			v23.7h-2.8l-0.6-2.2H12C10.8,23.2,9.2,24,6.9,24"/>
	</g>
	<path class="st1" d="M266.8,9.3c-1.1,0-2,0.4-2.7,1.1c-0.7,0.7-1.1,1.8-1.2,3.2h7.6c0-1.4-0.4-2.4-1-3.2S268,9.3,266.8,9.3
		 M267.5,24c-2.6,0-4.7-0.8-6.1-2.3c-1.5-1.5-2.2-3.6-2.2-6.3c0-2.8,0.7-4.9,2.1-6.5c1.4-1.6,3.3-2.4,5.6-2.4c2.2,0,4,0.7,5.3,2
		c1.3,1.4,1.9,3.2,1.9,5.6v1.9h-11.2c0,1.6,0.5,2.9,1.3,3.8c0.8,0.9,2,1.3,3.5,1.3c1,0,1.9-0.1,2.8-0.3s1.8-0.5,2.8-0.9v2.9
		c-0.8,0.4-1.7,0.7-2.6,0.9C269.7,23.9,268.6,24,267.5,24"/>
	<defs>
		<filter id="Adobe_OpacityMaskFilter_3_" filterUnits="userSpaceOnUse" x="276.6" y="0.4" width="35" height="23.3">
			<feColorMatrix  type="matrix" values="1 0 0 0 0  0 1 0 0 0  0 0 1 0 0  0 0 0 1 0"/>
		</filter>
	</defs>
	<mask maskUnits="userSpaceOnUse" x="276.6" y="0.4" width="35" height="23.3" id="h">
		<g class="st9">
			<path id="g" class="st1" d="M0,24h311.6V0H0V24z"/>
		</g>
	</mask>
	<path class="st10" d="M276.6,16.9h7.8v-3h-7.8V16.9z M288.1,23.7h3.6V6.9h-3.6V23.7z M287.9,2.4c0-0.6,0.2-1.1,0.5-1.5
		c0.4-0.3,0.9-0.5,1.5-0.5c0.6,0,1.1,0.2,1.5,0.5c0.4,0.3,0.5,0.8,0.5,1.5c0,0.6-0.2,1.1-0.5,1.4c-0.4,0.3-0.8,0.5-1.5,0.5
		c-0.6,0-1.1-0.2-1.5-0.5C288.1,3.5,287.9,3,287.9,2.4L287.9,2.4z M311.6,23.7h-3.6V13.3c0-1.3-0.3-2.3-0.8-2.9s-1.4-1-2.5-1
		c-1.5,0-2.6,0.4-3.3,1.3c-0.7,0.9-1,2.4-1,4.5v8.4h-3.6V6.9h2.8l0.5,2.2h0.2c0.5-0.8,1.2-1.4,2.2-1.9c0.9-0.4,2-0.7,3.1-0.7
		c4,0,6.1,2.1,6.1,6.2L311.6,23.7L311.6,23.7z"/>
</g>
</svg>
