<svg xmlns="http://www.w3.org/2000/svg" xmlns:xlink="http://www.w3.org/1999/xlink" width="312" height="24" viewBox="0 0 312 24">
    <defs>
        <path id="a" d="M0 23.46V.523h18.196V23.46H0z"/>
        <path id="c" d="M18.865 0H.18v23.983h18.685V0z"/>
        <path id="e" d="M.262 0h15.32v24H.262V0z"/>
        <path id="g" d="M0 24h311.645V0H0z"/>
    </defs>
    <g fill="none" fill-rule="evenodd">
        <mask id="b" fill="#fff">
            <use xlink:href="#a"/>
        </mask>
        <path fill="#808184" d="M18.196 1.534v2.893c0 .628-.209 1.011-1.01 1.011h-5.334V22.45c0 .801-.383 1.01-1.011 1.01h-3.45c-.628 0-1.012-.209-1.012-1.01V5.439H1.011C.209 5.438 0 5.054 0 4.426V1.534C0 .906.209.523 1.01.523h16.176c.801 0 1.01.383 1.01 1.01" mask="url(#b)"/>
        <path fill="#808184" d="M38.206 23.46h-4.113c-.837 0-1.255-.314-1.743-1.046l-3.764-5.612c-.315-.418-.384-.802-.384-1.778v-2.788c0-.628.209-1.012 1.01-1.012h.698c1.708 0 3.312-1.185 3.312-2.823 0-1.813-1.395-2.963-3.207-2.963h-4.637v17.01c0 .803-.383 1.012-1.01 1.012h-3.452c-.627 0-.976-.21-.976-1.011V1.569c0-.628.174-1.012.976-1.012h8.785c3.8 0 5.472.768 6.937 2.231 1.29 1.256 2.021 3.243 2.021 5.473 0 3.66-2.684 6.205-4.845 6.937l4.915 7.146c.314.488.14 1.116-.523 1.116"/>
        <g transform="translate(40.571)">
            <mask id="d" fill="#fff">
                <use xlink:href="#c"/>
            </mask>
            <path fill="#808184" d="M13.392 8.366c0-2.23-1.604-3.52-3.904-3.52-2.266 0-3.87 1.29-3.87 3.52v7.25c0 2.231 1.604 3.522 3.87 3.522 2.3 0 3.904-1.29 3.904-3.522v-7.25zm5.473 7.738c0 5.508-5.23 7.879-9.377 7.879-4.148 0-9.308-2.371-9.308-7.879V7.878C.18 2.37 5.34 0 9.488 0s9.377 2.37 9.377 7.878v8.226z" mask="url(#d)"/>
        </g>
        <path fill="#808184" d="M70.766 23.983c-4.148 0-9.342-2.406-9.342-7.879V7.878C61.424 2.405 66.618 0 70.766 0c4.322 0 8.61 2.196 9.063 6.623 0 .836-.279 1.01-1.08 1.01h-3.347c-.732 0-.767-.661-1.045-1.08-.732-1.15-1.709-1.673-3.591-1.673-2.3 0-3.87 1.29-3.87 3.486v7.25c0 2.232 1.57 3.487 3.87 3.487 1.882 0 3.381-.698 3.66-2.37.104-.698.175-1.256.942-1.256h3.416c.766 0 1.045.348 1.045 1.186 0 4.496-4.74 7.32-9.063 7.32M93.983 14.78l-2.615-7.704-2.614 7.704h5.23zm7.6 8.68h-3.66c-.768 0-1.047-.21-1.326-1.046l-.976-2.754h-8.54l-.976 2.754c-.279.837-.558 1.046-1.325 1.046h-3.66c-.767 0-.767-.558-.592-.976l7.738-20.88c.279-.732.662-1.081 1.43-1.081h3.346c.767 0 1.115.349 1.43 1.08l7.703 20.88c.174.419.174.977-.593.977zM120.547 1.534v2.858c0 .627-.21 1.01-1.011 1.01h-10.527v4.08h9.062c.802 0 1.012.383 1.012 1.01v2.755c0 .627-.21 1.01-1.012 1.01h-9.062v8.157c0 .906-.21 1.046-1.011 1.046h-3.451c-.802 0-1.012-.384-1.012-1.011V1.534c0-.628.21-1.011 1.012-1.011h14.989c.802 0 1.01.383 1.01 1.01M162.136 1.534v20.915c0 .627-.21 1.01-1.012 1.01h-3.172c-.87 0-1.115-.487-1.568-1.184l-7.39-11.957V22.45c0 .801-.384 1.01-1.012 1.01h-3.45c-.628 0-1.011-.209-1.011-1.01V1.534c0-.628.209-1.011 1.01-1.011h3.278c.871 0 1.115.488 1.568 1.185l7.39 11.922V1.534c0-.802.383-1.011 1.011-1.011h3.346c.628 0 1.012.209 1.012 1.01M183.191 19.59v2.859c0 .628-.21 1.01-1.011 1.01h-15.617c-.801 0-1.01-.382-1.01-1.01V1.534c0-.628.209-1.011 1.01-1.011h15.024c.803 0 1.011.383 1.011 1.01v2.894c0 .628-.208 1.011-1.01 1.011H171.06v3.8h9.342c.8 0 1.01.383 1.01 1.01v2.72c0 .627-.21 1.01-1.01 1.01h-9.342v4.601h11.119c.802 0 1.011.384 1.011 1.011"/>
        <path fill="#F79D20" d="M123.682 11.398a.984.984 0 0 1 1.388 0l1.514 1.513V6.09c0-.835.684-1.519 1.52-1.519h6.697c.836 0 1.52.684 1.52 1.519v2.397l1.284 1.296a.973.973 0 0 0 1.382 0l1.8-1.818.001-.28c-.002-.077-.008-.152-.012-.228-.274-5.19-5.318-7.44-9.352-7.44-4.148 0-9.308 2.37-9.308 7.879v5.068l1.566-1.566z"/>
        <path fill="#F26F24" d="M131.459 17.85a.642.642 0 1 1 0-1.285.642.642 0 0 1 0 1.284zm7.528-5.604a.973.973 0 0 1-1.383 0l-1.284-1.297v6.704c0 .836-.683 1.52-1.519 1.52h-6.698c-.835 0-1.52-.684-1.52-1.52V15.36l-1.512-1.514a.984.984 0 0 0-1.388 0l-1.567 1.566v.71c0 5.507 5.16 7.878 9.308 7.878s9.377-2.37 9.377-7.878v-5.708l-1.814 1.832z"/>
        <path fill="#808184" d="M203.173 21.107c.873 0 1.746-.137 2.62-.412v2.696c-.396.172-.907.317-1.53.434a10.56 10.56 0 0 1-1.943.175c-3.391 0-5.086-1.786-5.086-5.36V9.563h-2.3V7.98l2.468-1.31 1.218-3.563h2.208v3.746h4.797v2.71h-4.797v9.016c0 .863.215 1.5.647 1.91.431.412.997.618 1.698.618M217.7 6.548c.722 0 1.316.051 1.783.153l-.35 3.335a6.776 6.776 0 0 0-1.584-.183c-1.432 0-2.592.467-3.48 1.4-.888.935-1.333 2.148-1.333 3.64v8.803h-3.578V6.853h2.802l.472 2.97h.183c.558-1.006 1.287-1.802 2.185-2.391.899-.589 1.865-.884 2.9-.884M227.813 21.259c1.299 0 2.342-.363 3.13-1.089.786-.726 1.18-1.744 1.18-3.054v-1.461l-2.163.091c-1.685.06-2.912.343-3.678.845-.767.503-1.149 1.272-1.149 2.308 0 .751.223 1.332.67 1.743.446.412 1.116.617 2.01.617zm5.33 2.436l-.716-2.345h-.122c-.813 1.026-1.63 1.724-2.452 2.094-.822.37-1.878.556-3.167.556-1.655 0-2.947-.446-3.876-1.34-.929-.893-1.393-2.157-1.393-3.792 0-1.736.645-3.046 1.934-3.93 1.289-.882 3.253-1.364 5.893-1.446l2.909-.091v-.898c0-1.077-.251-1.881-.754-2.414-.503-.533-1.282-.8-2.337-.8-.864 0-1.69.127-2.483.381-.792.254-1.553.553-2.284.898l-1.157-2.558a12.45 12.45 0 0 1 3-1.088c1.086-.249 2.112-.374 3.076-.374 2.142 0 3.758.467 4.85 1.401 1.091.934 1.637 2.402 1.637 4.401v11.345h-2.558z"/>
        <g transform="translate(239.429)">
            <mask id="f" fill="#fff">
                <use xlink:href="#e"/>
            </mask>
            <path fill="#808184" d="M7.907 21.107c1.472 0 2.543-.414 3.214-1.241.67-.828 1.014-2.17 1.035-4.028v-.503c0-2.121-.346-3.63-1.035-4.523-.691-.893-1.772-1.34-3.244-1.34-1.26 0-2.23.51-2.91 1.53-.68 1.02-1.02 2.475-1.02 4.364 0 1.868.33 3.292.99 4.271.66.98 1.65 1.47 2.97 1.47M6.947 24c-2.1 0-3.74-.761-4.918-2.284C.851 20.193.262 18.056.262 15.304c0-2.76.597-4.91 1.79-6.449 1.193-1.537 2.845-2.307 4.957-2.307 2.213 0 3.898.818 5.055 2.452h.183c-.173-1.208-.258-2.162-.258-2.863V0h3.593v23.695H12.78l-.624-2.208h-.167C10.84 23.163 9.16 24 6.947 24" mask="url(#f)"/>
        </g>
        <path fill="#808184" d="M266.828 9.259c-1.137 0-2.048.36-2.734 1.081-.685.721-1.093 1.772-1.225 3.152h7.644c-.02-1.39-.355-2.444-1.005-3.16-.65-.716-1.543-1.073-2.68-1.073m.655 14.74c-2.62 0-4.667-.763-6.145-2.29-1.477-1.529-2.216-3.633-2.216-6.313 0-2.752.686-4.914 2.056-6.488 1.371-1.573 3.254-2.36 5.65-2.36 2.224 0 3.98.675 5.27 2.026 1.288 1.35 1.933 3.208 1.933 5.573v1.934h-11.223c.05 1.635.492 2.891 1.325 3.77.832.877 2.005 1.316 3.517 1.316.995 0 1.922-.093 2.78-.281.858-.188 1.779-.5 2.764-.937v2.909a10.99 10.99 0 0 1-2.65.883c-.894.173-1.914.259-3.061.259"/>
        <mask id="h" fill="#fff">
            <use xlink:href="#g"/>
        </mask>
        <path fill="#808184" d="M276.635 16.858h7.827v-3.046h-7.827zM288.133 23.695h3.578V6.853h-3.578v16.842zm-.214-21.304c0-.64.175-1.132.526-1.477.35-.345.85-.518 1.5-.518.63 0 1.119.173 1.47.518.35.345.524.837.524 1.477 0 .609-.174 1.089-.525 1.439-.35.35-.84.525-1.47.525-.65 0-1.149-.175-1.5-.525-.35-.35-.525-.83-.525-1.44zM311.645 23.695h-3.594V13.34c0-1.3-.261-2.27-.784-2.909-.523-.639-1.353-.959-2.49-.959-1.513 0-2.62.447-3.32 1.34-.7.894-1.05 2.39-1.05 4.493v8.39h-3.58V6.853h2.803l.503 2.208h.182c.508-.802 1.228-1.421 2.163-1.858.934-.436 1.969-.655 3.106-.655 4.041 0 6.061 2.056 6.061 6.168v10.98z" mask="url(#h)"/>
    </g>
</svg>
