<?xml version="1.0" encoding="utf-8"?>
<!-- Generator: Adobe Illustrator 21.0.0, SVG Export Plug-In . SVG Version: 6.00 Build 0)  -->
<svg version="1.1" id="Layer_1" xmlns="http://www.w3.org/2000/svg" xmlns:xlink="http://www.w3.org/1999/xlink" x="0px" y="0px"
	 viewBox="0 0 414 56" style="enable-background:new 0 0 414 56;" xml:space="preserve">
<style type="text/css">
	.st0{fill:#808083;}
	.st1{fill:#F69C20;}
	.st2{fill:#F16F24;}
</style>
<g>
	<path class="st0" d="M42,4.3v6.5c0,1.4-0.5,2.3-2.3,2.3h-12v38.3c0,1.8-0.9,2.3-2.3,2.3h-7.8c-1.4,0-2.3-0.5-2.3-2.3V13.1H3.4
		c-1.8,0-2.3-0.9-2.3-2.3V4.3c0-1.4,0.5-2.3,2.3-2.3h36.4C41.6,2.1,42,2.9,42,4.3z"/>
	<path class="st0" d="M87,53.7h-9.3c-1.9,0-2.8-0.7-3.9-2.4l-8.5-12.6c-0.7-0.9-0.9-1.8-0.9-4v-6.3c0-1.4,0.5-2.3,2.3-2.3h1.6
		c3.8,0,7.4-2.7,7.4-6.4c0-4.1-3.1-6.7-7.2-6.7H58.2v38.3c0,1.8-0.9,2.3-2.3,2.3h-7.8c-1.4,0-2.2-0.5-2.2-2.3v-47
		c0-1.4,0.4-2.3,2.2-2.3h19.8c8.5,0,12.3,1.7,15.6,5C86.4,10,88,14.5,88,19.5c0,8.2-6,14-10.9,15.6l11.1,16.1
		C88.9,52.3,88.5,53.7,87,53.7z"/>
	<path class="st0" d="M134.8,37.1c0,12.4-11.8,17.7-21.1,17.7c-9.3,0-20.9-5.3-20.9-17.7V18.6c0-12.4,11.6-17.7,20.9-17.7
		c9.3,0,21.1,5.3,21.1,17.7V37.1z M122.5,19.7c0-5-3.6-7.9-8.8-7.9c-5.1,0-8.7,2.9-8.7,7.9V36c0,5,3.6,7.9,8.7,7.9
		c5.2,0,8.8-2.9,8.8-7.9V19.7z"/>
	<path class="st0" d="M160.3,54.9c-9.3,0-21-5.4-21-17.7V18.6c0-12.3,11.7-17.7,21-17.7c9.7,0,19.4,4.9,20.4,14.9
		c0,1.9-0.6,2.3-2.4,2.3h-7.5c-1.6,0-1.7-1.5-2.4-2.4c-1.6-2.6-3.8-3.8-8.1-3.8c-5.2,0-8.7,2.9-8.7,7.8V36c0,5,3.5,7.8,8.7,7.8
		c4.2,0,7.6-1.6,8.2-5.3c0.2-1.6,0.4-2.8,2.1-2.8h7.7c1.7,0,2.4,0.8,2.4,2.7C180.6,48.5,170,54.9,160.3,54.9z"/>
	<path class="st0" d="M229.6,53.7h-8.2c-1.7,0-2.4-0.5-3-2.4l-2.2-6.2h-19.2l-2.2,6.2c-0.6,1.9-1.3,2.4-3,2.4h-8.2
		c-1.7,0-1.7-1.3-1.3-2.2l17.4-47c0.6-1.6,1.5-2.4,3.2-2.4h7.5c1.7,0,2.5,0.8,3.2,2.4l17.3,47C231.3,52.4,231.3,53.7,229.6,53.7z
		 M212.5,34.2l-5.9-17.3l-5.9,17.3H212.5z"/>
	<path class="st0" d="M272.2,4.3v6.4c0,1.4-0.5,2.3-2.3,2.3h-23.7v9.2h20.4c1.8,0,2.3,0.9,2.3,2.3v6.2c0,1.4-0.5,2.3-2.3,2.3h-20.4
		v18.4c0,2-0.5,2.4-2.3,2.4h-7.8c-1.8,0-2.3-0.9-2.3-2.3V4.3c0-1.4,0.5-2.3,2.3-2.3h33.7C271.7,2.1,272.2,2.9,272.2,4.3z"/>
	<path class="st0" d="M365.7,4.3v47.1c0,1.4-0.5,2.3-2.3,2.3h-7.1c-2,0-2.5-1.1-3.5-2.7l-16.6-26.9v27.3c0,1.8-0.9,2.3-2.3,2.3h-7.8
		c-1.4,0-2.3-0.5-2.3-2.3V4.3c0-1.4,0.5-2.3,2.3-2.3h7.4c2,0,2.5,1.1,3.5,2.7l16.6,26.8V4.3c0-1.8,0.9-2.3,2.3-2.3h7.5
		C364.9,2.1,365.7,2.5,365.7,4.3z"/>
	<path class="st0" d="M413.1,45v6.4c0,1.4-0.5,2.3-2.3,2.3h-35.1c-1.8,0-2.3-0.9-2.3-2.3V4.3c0-1.4,0.5-2.3,2.3-2.3h33.8
		c1.8,0,2.3,0.9,2.3,2.3v6.5c0,1.4-0.5,2.3-2.3,2.3h-23.7v8.5h21c1.8,0,2.3,0.9,2.3,2.3v6.1c0,1.4-0.5,2.3-2.3,2.3h-21v10.4h25
		C412.6,42.7,413.1,43.6,413.1,45z"/>
	<g>
		<path class="st1" d="M279.3,26.5c0.9-0.9,2.3-0.9,3.1,0l3.4,3.4V14.6c0-1.9,1.5-3.4,3.4-3.4h15.1c1.9,0,3.4,1.5,3.4,3.4V20
			l2.9,2.9c0.9,0.9,2.3,0.9,3.1,0l4-4.1l0-0.6c0-0.2,0-0.3,0-0.5c-0.6-11.7-12-16.7-21-16.7c-9.3,0-20.9,5.3-20.9,17.7v11.4
			L279.3,26.5z"/>
		<path class="st2" d="M313.7,28.5c-0.9,0.9-2.3,0.9-3.1,0l-2.9-2.9v15.1c0,1.9-1.5,3.4-3.4,3.4h-15.1c-1.9,0-3.4-1.5-3.4-3.4v-5.2
			l-3.4-3.4c-0.9-0.9-2.3-0.9-3.1,0l-3.5,3.5v1.6c0,12.4,11.6,17.7,20.9,17.7c9.3,0,21.1-5.3,21.1-17.7V24.3L313.7,28.5z
			 M296.8,41.1c-0.8,0-1.4-0.6-1.4-1.4c0-0.8,0.6-1.4,1.4-1.4c0.8,0,1.4,0.6,1.4,1.4C298.2,40.4,297.6,41.1,296.8,41.1z"/>
	</g>
</g>
</svg>
